Coordinates
version=1
nRows=7
nColumns=33
inDegrees=yes

Units are S.I. units (second, meters, Newtons, ...)
Angles are in degrees.

endheader
time	ground_thorax_rot_x	ground_thorax_rot_y	ground_thorax_rot_z	ground_thorax_tx	ground_thorax_ty	ground_thorax_tz	clav_prot_r	clav_elev_r	scapula_abduction_r	scapula_elevation_r	scapula_upward_rot_r	scapula_winging_r	shoulder_elv_r	plane_of_elev_r	axial_rot_r	elbow_flexion_r	pro_sup_r	wrist_flex_r	wrist_dev_r	clav_prot_l	clav_elev_l	scapula_abduction_l	scapula_elevation_l	scapula_upward_rot_l	scapula_winging_l	shoulder_elv_l	plane_of_elev_l	axial_rot_l	elbow_flexion_l	pro_sup_l	wrist_flex_l	wrist_dev_l
      3.06000000	     39.46010616	      3.01337673	     12.08913867	   -206.22574787	    885.87147020	     -6.73708537	     13.52472567	     36.95502331	     36.53662902	     45.00000000	    -43.66032642	   4233.04506761	  -2091.50862816	     32.33865398	     68.28395906	   1455.86843751	   -306.48326451	     18.82028766	      5.42614048	     12.31610538	    -45.00000000	    -37.18450353	     45.00000000	    -45.00000000	  -1699.19496356	  -1892.97604343	    143.15793612	    140.77478832	   1812.62137788	   -318.82299750	      6.70576847	    -22.91570340
      3.07000000	     39.50232594	      2.96444692	     11.99126237	   -204.72787329	    887.01862941	     -6.71727755	     13.54080902	     37.04274232	     36.68300213	     45.00000000	    -43.33168381	   4232.91019977	  -2091.44665750	     32.36369502	     68.26538536	   1456.04151509	   -305.09091675	     18.81778912	      5.31481772	     12.33295296	    -45.00000000	    -37.34241533	     45.00000000	    -45.00000000	  -1699.30618771	  -1892.79161526	    142.95400442	    141.48619549	   1812.71396085	   -318.10332722	      6.56732699	    -22.92604580
      3.08000000	     39.55134485	      2.82831104	     11.87064171	   -203.17130148	    888.21670788	     -6.67951168	     13.31297458	     37.11086276	     36.84491843	     45.00000000	    -42.77375379	   4232.82740074	  -2091.34635346	     32.33751294	     68.21626821	   1456.18023169	   -303.83179511	     18.86571417	      5.26861189	     12.41634584	    -45.00000000	    -37.42799965	     45.00000000	    -45.00000000	  -1699.31422320	  -1892.59877141	    142.65362213	    142.23585072	   1812.77703868	   -317.55028609	      6.39602736	    -22.87586124
      3.09000000	     39.57704500	      2.84056540	     11.82999343	   -201.55678874	    889.44648760	     -6.62800366	     13.08085536	     37.14790719	     36.91959373	     45.00000000	    -42.08161906	   4232.82683048	  -2091.23708721	     32.06494058	     68.03709443	   1456.42114567	   -302.70766621	     18.89421706	      5.14974581	     12.36377563	    -45.00000000	    -37.56347493	     45.00000000	    -45.00000000	  -1699.40071815	  -1892.38587132	    142.43001977	    142.96287031	   1812.88260306	   -317.13138487	      6.29526544	    -22.89347214
      3.10000000	     39.63708579	      2.75920573	     11.71970823	   -199.86280633	    890.70544001	     -6.56681132	     13.29922411	     37.27641907	     37.13365192	     45.00000000	    -41.83772952	   4232.60725191	  -2091.18524039	     32.25742031	     68.00876942	   1456.53468642	   -301.43184966	     18.87391583	      5.04265833	     12.38828220	    -45.00000000	    -37.73078857	     45.00000000	    -45.00000000	  -1699.51462566	  -1892.20255829	    142.19210485	    143.84205176	   1812.94166723	   -316.76156703	      6.22808165	    -22.92213834
      3.11000000	     39.64230993	      2.65534603	     11.49197582	   -198.08433796	    891.97759054	     -6.49940531	     12.85148458	     37.30363669	     37.16987806	     45.00000000	    -40.98075738	   4232.65787378	  -2091.05102972	     32.04705642	     67.79072598	   1456.75174774	   -300.32246629	     18.91597619	      4.95663121	     12.45509956	    -45.00000000	    -37.99558086	     45.00000000	    -44.34796006	  -1699.52495759	  -1892.03137571	    142.01043005	    144.61116332	   1812.95009823	   -316.54021262	      6.18786039	    -22.94200420
      3.12000000	     39.72852675	      2.44621079	     11.28979639	   -196.21419204	    893.24751278	     -6.42730417	     13.22111383	     37.46271739	     37.50981004	     45.00000000	    -40.83232835	   4232.40158648	  -2091.00807540	     32.39303997	     67.90210726	   1456.79173829	   -299.06677059	     18.90194406	      4.88555736	     12.37364418	    -45.00000000	    -38.17432479	     45.00000000	    -44.20349437	  -1699.64258913	  -1891.87479669	    141.75955629	    145.45899873	   1812.94439724	   -316.43522258	      6.12793474	    -22.93018071
